<svg width="14" height="14" viewBox="0 0 14 14" fill="none" xmlns="http://www.w3.org/2000/svg">
<path d="M12 7C12 6.73478 12.1054 6.48043 12.2929 6.29289C12.4804 6.10536 12.7348 6 13 6C13.2652 6 13.5196 6.10536 13.7071 6.29289C13.8946 6.48043 14 6.73478 14 7V12C14 12.5304 13.7893 13.0391 13.4142 13.4142C13.0391 13.7893 12.5304 14 12 14H2C1.46957 14 0.960859 13.7893 0.585786 13.4142C0.210714 13.0391 0 12.5304 0 12V2C0 1.46957 0.210714 0.960859 0.585786 0.585786C0.960859 0.210714 1.46957 0 2 0H6C6.26522 0 6.51957 0.105357 6.70711 0.292893C6.89464 0.48043 7 0.734784 7 1C7 1.26522 6.89464 1.51957 6.70711 1.70711C6.51957 1.89464 6.26522 2 6 2H2V12H12V7ZM11.707 0.293L13.707 2.293C13.8945 2.48053 13.9998 2.73484 13.9998 3C13.9998 3.26516 13.8945 3.51947 13.707 3.707L7.707 9.707C7.51951 9.89455 7.26519 9.99994 7 10H5C4.73478 10 4.48043 9.89464 4.29289 9.70711C4.10536 9.51957 4 9.26522 4 9V7C4.00006 6.73481 4.10545 6.48049 4.293 6.293L10.293 0.293C10.4805 0.105529 10.7348 0.000213504 11 0.000213504C11.2652 0.000213504 11.5195 0.105529 11.707 0.293ZM6 7.414V8H6.586L11.586 3L11 2.414L6 7.414Z" fill="#0057AF"/>
</svg>
